<?xml version="1.0" encoding="utf-8"?>
<!-- Generator: Adobe Illustrator 15.0.0, SVG Export Plug-In . SVG Version: 6.00 Build 0)  -->
<!DOCTYPE svg PUBLIC "-//W3C//DTD SVG 1.1//EN" "http://www.w3.org/Graphics/SVG/1.1/DTD/svg11.dtd">
<svg version="1.1" id="Layer_1" xmlns="http://www.w3.org/2000/svg" xmlns:xlink="http://www.w3.org/1999/xlink" x="0px" y="0px"
	 width="180.667px" height="185.333px" viewBox="0 0 180.667 185.333" enable-background="new 0 0 180.667 185.333"
	 xml:space="preserve">
<symbol  id="Bubble" viewBox="-11 -11 22 22">
	<g>
		<g>
			<radialGradient id="SVGID_1_" cx="-4.3779" cy="6.1621" r="18.6933" gradientUnits="userSpaceOnUse">
				<stop  offset="0" style="stop-color:#F6F6F6"/>
				<stop  offset="1" style="stop-color:#203234"/>
			</radialGradient>
			<path fill="url(#SVGID_1_)" d="M11,0c0-6.075-4.926-11-11-11c-6.075,0-11,4.925-11,11s4.925,11,11,11C6.075,11,11,6.075,11,0z"/>
			<path opacity="0.5" fill="#666666" d="M11,0c0-6.075-4.926-11-11-11c-6.075,0-11,4.925-11,11s4.925,11,11,11
				C6.075,11,11,6.075,11,0z"/>
		</g>
	</g>
</symbol>
<symbol  id="Parking" viewBox="-7.227 -78.984 86.227 86.209">
	<g>
		<polygon fill="none" points="-7.227,-78.984 79,-78.984 79,7.226 -7.227,7.226 		"/>
		<g>
			<path fill="none" d="M79-65.386c0-7.521-6.082-13.598-13.598-13.598H6.376c-7.516,0-13.604,6.076-13.604,13.598v59.038
				c0,7.48,6.088,13.574,13.604,13.574h59.025C72.917,7.226,79,1.132,79-6.348V-65.386z"/>
			<path fill="#FFFFFF" d="M41.138-34.324c9.869,0,9.869,7.049,9.869,9.881c0,6.164-3.449,8.721-11.646,8.721H28.88v-18.602H41.138z
				 M28.88-68.066H15.674v63.267h28.89c12.257,0,19.655-7.847,19.655-20.262c0-5.732-3.169-20.18-20.174-20.18H28.88V-68.066z"/>
		</g>
	</g>
</symbol>
<use xlink:href="#Bubble"  width="22" height="22" id="XMLID_1_" x="-11" y="-11" transform="matrix(7.1211 0 0 -7.1211 93.998 93.332)" overflow="visible"/>
<use xlink:href="#Parking"  width="86.227" height="86.209" x="-7.227" y="-78.984" transform="matrix(1.1599 0 0 -1.1599 52.7075 52.0498)" overflow="visible"/>
</svg>
