<?xml version="1.0" encoding="utf-8"?>
<!-- Generator: Adobe Illustrator 15.0.0, SVG Export Plug-In . SVG Version: 6.00 Build 0)  -->
<!DOCTYPE svg PUBLIC "-//W3C//DTD SVG 1.1//EN" "http://www.w3.org/Graphics/SVG/1.1/DTD/svg11.dtd">
<svg version="1.1" id="Layer_1" xmlns="http://www.w3.org/2000/svg" xmlns:xlink="http://www.w3.org/1999/xlink" x="0px" y="0px"
	 width="180.667px" height="185.333px" viewBox="0 0 180.667 185.333" enable-background="new 0 0 180.667 185.333"
	 xml:space="preserve">
<symbol  id="Bubble" viewBox="-11 -11 22 22">
	<g>
		<g>
			<radialGradient id="SVGID_1_" cx="-4.3779" cy="6.1621" r="18.6933" gradientUnits="userSpaceOnUse">
				<stop  offset="0" style="stop-color:#F6F6F6"/>
				<stop  offset="1" style="stop-color:#203234"/>
			</radialGradient>
			<path fill="url(#SVGID_1_)" d="M11,0c0-6.075-4.926-11-11-11c-6.075,0-11,4.925-11,11s4.925,11,11,11C6.075,11,11,6.075,11,0z"/>
			<path opacity="0.5" fill="#F2F2F2" d="M11,0c0-6.075-4.926-11-11-11c-6.075,0-11,4.925-11,11s4.925,11,11,11
				C6.075,11,11,6.075,11,0z"/>
		</g>
	</g>
</symbol>
<symbol  id="Restrooms" viewBox="-7.398 -7.397 139.212 113.067">
	<g>
		<polygon fill="none" points="-7.398,-7.397 131.813,-7.397 131.813,105.669 -7.398,105.669 		"/>
		<g>
			<path fill="none" d="M131.813,10.439c0-9.837-9.84-17.837-21.952-17.837H14.561c-12.127,0-21.959,8-21.959,17.837v77.421
				c0,9.836,9.832,17.809,21.959,17.809h95.301c12.112,0,21.952-7.972,21.952-17.809V10.439z"/>
			<g>
				<polygon fill="none" points="59.938,97.228 59.938,5.872 8.405,5.872 8.405,77.175 				"/>
				<polygon fill="none" points="65.718,97.228 65.718,5.872 117.232,5.872 117.232,77.175 				"/>
				<g>
					<g>
						<polygon fill="#231F20" points="27.433,69.084 41.865,69.084 55.078,42.687 52.451,41.248 41.426,57.829 40.415,56.979 
							51.99,31.762 40.635,31.762 36.978,9.783 32.385,9.783 28.728,31.762 17.372,31.762 29.113,56.471 27.929,57.829 
							16.931,41.248 14.267,42.687 						"/>
						<path fill="#231F20" d="M42.563,77.443c0-3.701-3.702-6.701-8.25-6.701c-4.538,0-8.232,3-8.232,6.701
							c0,3.673,3.694,6.688,8.232,6.688C38.861,84.13,42.563,81.116,42.563,77.443z"/>
						<path fill="#231F20" d="M98.15,77.443c0-3.701-3.702-6.701-8.241-6.701c-4.568,0-8.263,3-8.263,6.701
							c0,3.673,3.694,6.688,8.263,6.688C94.448,84.13,98.15,81.116,98.15,77.443z"/>
					</g>
					<polygon fill="#231F20" points="78.039,69.084 100.646,69.084 105.736,66.65 105.736,35.665 101.345,35.665 101.345,57.255 
						97.811,57.255 97.811,9.783 92.143,9.783 90.448,27.903 88.556,27.903 87.03,9.783 81.043,9.783 81.043,57.255 77.53,57.255 
						77.496,35.665 73.16,35.665 73.16,66.023 					"/>
				</g>
			</g>
		</g>
	</g>
</symbol>
<use xlink:href="#Bubble"  width="22" height="22" id="XMLID_1_" x="-11" y="-11" transform="matrix(7.1211 0 0 -7.1211 93.998 93.332)" display="none" overflow="visible"/>
<use xlink:href="#Bubble"  width="22" height="22" x="-11" y="-11" transform="matrix(8.0605 0 0 -8.0605 91.333 92.668)" overflow="visible"/>
<use xlink:href="#Restrooms"  width="139.212" height="113.067" x="-7.398" y="-7.397" transform="matrix(1.3071 0 0 -1.5128 9.6709 162.8574)" overflow="visible"/>
</svg>
