<?xml version="1.0" encoding="utf-8"?>
<!-- Generator: Adobe Illustrator 15.0.0, SVG Export Plug-In . SVG Version: 6.00 Build 0)  -->
<!DOCTYPE svg PUBLIC "-//W3C//DTD SVG 1.1//EN" "http://www.w3.org/Graphics/SVG/1.1/DTD/svg11.dtd">
<svg version="1.1" id="Layer_1" xmlns="http://www.w3.org/2000/svg" xmlns:xlink="http://www.w3.org/1999/xlink" x="0px" y="0px"
	 width="180.667px" height="185.333px" viewBox="0 0 180.667 185.333" enable-background="new 0 0 180.667 185.333"
	 xml:space="preserve">
<symbol  id="Bubble" viewBox="-11 -11 22 22">
	<g>
		<g>
			<radialGradient id="SVGID_1_" cx="-4.3779" cy="6.1621" r="18.6931" gradientUnits="userSpaceOnUse">
				<stop  offset="0" style="stop-color:#F6F6F6"/>
				<stop  offset="1" style="stop-color:#203234"/>
			</radialGradient>
			<path fill="url(#SVGID_1_)" d="M11,0c0-6.075-4.926-11-11-11c-6.075,0-11,4.925-11,11s4.925,11,11,11C6.074,11,11,6.075,11,0z"/>
			<path opacity="0.5" fill="#93278F" d="M11,0c0-6.075-4.926-11-11-11c-6.075,0-11,4.925-11,11s4.925,11,11,11
				C6.074,11,11,6.075,11,0z"/>
		</g>
	</g>
</symbol>
<symbol  id="Music" viewBox="-30.953 -30.311 61.905 60.622">
	<path fill="#FFFFFF" d="M30.875-15.991h0.057v46.146l0.021,0.155l-0.021-0.003v0.003l-0.048-0.01l-44.898-6.012h-0.003v-36.461
		c-1.777,0.568-3.777,0.797-5.862,0.595c-6.597-0.641-11.538-5.337-11.038-10.489c0.501-5.153,6.253-8.813,12.849-8.172
		c6.598,0.641,11.539,5.337,11.038,10.49c-0.009,0.088-0.03,0.171-0.042,0.258h0.057v31.629l30.947,4.52v-25.33
		c-1.777,0.568-3.776,0.799-5.862,0.596C11.472-8.718,6.53-13.414,7.03-18.566c0.501-5.153,6.253-8.813,12.849-8.172
		c6.598,0.641,11.539,5.337,11.038,10.49C30.908-16.16,30.887-16.078,30.875-15.991z"/>
</symbol>
<use xlink:href="#Bubble"  width="22" height="22" id="XMLID_1_" x="-11" y="-11" transform="matrix(7.1211 0 0 -7.1211 93.998 93.332)" display="none" overflow="visible"/>
<use xlink:href="#Bubble"  width="22" height="22" x="-11" y="-11" transform="matrix(8.0605 0 0 -8.0605 91.333 92.668)" overflow="visible"/>
<use xlink:href="#Music"  width="61.905" height="60.622" id="XMLID_2_" x="-30.953" y="-30.311" transform="matrix(1.9711 0 0 -1.9711 84.7256 90.0615)" overflow="visible"/>
</svg>
