<?xml version="1.0" encoding="utf-8"?>
<!-- Generator: Adobe Illustrator 15.0.0, SVG Export Plug-In . SVG Version: 6.00 Build 0)  -->
<!DOCTYPE svg PUBLIC "-//W3C//DTD SVG 1.1//EN" "http://www.w3.org/Graphics/SVG/1.1/DTD/svg11.dtd">
<svg version="1.1" id="Layer_1" xmlns="http://www.w3.org/2000/svg" xmlns:xlink="http://www.w3.org/1999/xlink" x="0px" y="0px"
	 width="180.667px" height="185.333px" viewBox="0 0 180.667 185.333" enable-background="new 0 0 180.667 185.333"
	 xml:space="preserve">
<symbol  id="Bubble" viewBox="-11 -11 22 22">
	<g>
		<g>
			<radialGradient id="SVGID_1_" cx="-4.3779" cy="6.1621" r="18.6933" gradientUnits="userSpaceOnUse">
				<stop  offset="0" style="stop-color:#F6F6F6"/>
				<stop  offset="1" style="stop-color:#203234"/>
			</radialGradient>
			<path fill="url(#SVGID_1_)" d="M11,0c0-6.075-4.926-11-11-11c-6.075,0-11,4.925-11,11s4.925,11,11,11C6.075,11,11,6.075,11,0z"/>
			<path opacity="0.5" fill="#0071BC" d="M11,0c0-6.075-4.926-11-11-11c-6.075,0-11,4.925-11,11s4.925,11,11,11
				C6.075,11,11,6.075,11,0z"/>
		</g>
	</g>
</symbol>
<symbol  id="Capitol" viewBox="-5.78 -5.781 103.769 103.795">
	<g>
		<path fill="none" d="M97.989,46.099c0-28.649-23.23-51.88-51.88-51.88C17.456-5.781-5.78,17.45-5.78,46.099
			c0,28.666,23.235,51.897,51.889,51.897C74.758,97.997,97.989,74.765,97.989,46.099z"/>
		<g>
			<g>
				<polygon fill="#FFFFFF" points="76.932,4.143 46.179,25.971 15.742,3.529 25.267,39.673 -3.755,61.537 32.416,62.843 
					45.39,98.014 58.987,63.141 95.254,62.545 66.737,40.164 				"/>
			</g>
		</g>
	</g>
</symbol>
<use xlink:href="#Bubble"  width="22" height="22" x="-11" y="-11" transform="matrix(7.1211 0 0 -7.1211 93.998 93.332)" overflow="visible"/>
<use xlink:href="#Capitol"  width="103.769" height="103.795" x="-5.78" y="-5.781" transform="matrix(1.0392 -0.011 -0.011 -1.0392 46.584 141)" overflow="visible"/>
</svg>
